<?xml version="1.0" encoding="UTF-8" standalone="no"?>
<svg
   version="1.1"
   viewBox="0 0 396.34141 238.89735"
   fill="none"
   stroke="none"
   stroke-linecap="square"
   stroke-miterlimit="10"
   id="svg79"
   sodipodi:docname="AA Logo.svg"
   inkscape:version="1.1.1 (eb90963e84, 2021-10-02)"
   width="396.3414"
   height="238.89735"
   xmlns:inkscape="http://www.inkscape.org/namespaces/inkscape"
   xmlns:sodipodi="http://sodipodi.sourceforge.net/DTD/sodipodi-0.dtd"
   xmlns="http://www.w3.org/2000/svg"
   xmlns:svg="http://www.w3.org/2000/svg">
  <defs
     id="defs83" />
  <sodipodi:namedview
     id="namedview81"
     pagecolor="#ffffff"
     bordercolor="#666666"
     borderopacity="1.0"
     inkscape:pageshadow="2"
     inkscape:pageopacity="0.0"
     inkscape:pagecheckerboard="0"
     showgrid="false"
     showguides="true"
     inkscape:guide-bbox="true"
     inkscape:zoom="1.4893942"
     inkscape:cx="37.599178"
     inkscape:cy="214.85245"
     inkscape:window-width="1712"
     inkscape:window-height="899"
     inkscape:window-x="0"
     inkscape:window-y="0"
     inkscape:window-maximized="1"
     inkscape:current-layer="svg79"
     fit-margin-top="0"
     fit-margin-left="0"
     fit-margin-right="0"
     fit-margin-bottom="0" />
  <clipPath
     id="p.0">
    <path
       d="M 0,0 H 378.08398 V 231.6378 H 0 Z"
       clip-rule="nonzero"
       id="path62" />
  </clipPath>
  <rect
     style="fill:#000000;stroke-width:2.21205"
     id="rect301"
     width="396.3414"
     height="238.89735"
     x="0"
     y="0" />
  <g
     id="g385"
     transform="translate(16.608732,6.0900146)">
    <path
       fill="#ffffff"
       d="M 30.213626,97.596958 43.808197,33.553909 h 8.626402 L 66.10904,97.596958 H 57.64239 L 54.718998,81.462391 H 41.683546 l -3.08314,16.134567 z M 42.865683,75.072464 H 53.536862 L 48.153348,46.205966 Z M 72.593381,97.596958 V 33.553909 h 12.875704 q 6.405903,0 10.591306,1.709306 4.201369,1.693331 6.214199,5.447413 2.01283,3.754083 2.01283,9.840489 0,3.722132 -0.79874,6.773323 -0.78276,3.035215 -2.52402,5.127917 -1.725285,2.092701 -4.584772,3.05119 l 9.105642,32.093411 H 96.859132 L 88.488326,67.548324 h -6.965021 v 30.048634 z m 8.929924,-36.438562 h 3.402636 q 3.786032,0 6.150306,-0.942514 2.380248,-0.958489 3.48251,-3.242888 1.118239,-2.300374 1.118239,-6.421877 0,-5.607162 -2.060753,-8.099234 -2.044777,-2.492071 -8.147158,-2.492071 h -3.94578 z M 120.65416,97.596958 V 40.199434 h -10.83093 v -6.645525 h 30.28825 v 6.645525 h -10.5274 v 57.397524 z m 26.0859,0 V 33.553909 h 8.78615 v 64.043049 z m 19.14349,0 V 33.553909 h 24.74499 v 6.405903 H 174.81347 V 61.30217 h 12.25269 v 6.326028 h -12.25269 v 29.96876 z m 31.3755,0 V 33.553909 h 8.78615 v 64.043049 z m 35.18221,0.718867 q -6.7893,0 -10.54338,-2.843518 -3.75409,-2.859492 -5.22377,-7.683888 -1.45371,-4.824395 -1.45371,-10.751053 V 54.432998 q 0,-6.485777 1.45371,-11.310172 1.46968,-4.824396 5.22377,-7.460241 3.75408,-2.65182 10.54338,-2.65182 6.0225,0 9.53696,2.2205 3.51446,2.204525 5.04804,6.326028 1.54957,4.105529 1.54957,9.872439 v 5.064017 h -8.46666 v -4.520874 q 0,-3.546409 -0.35144,-6.278103 -0.35145,-2.731694 -1.93296,-4.233327 -1.5815,-1.501633 -5.30364,-1.501633 -3.78603,0 -5.52729,1.629431 -1.74125,1.613457 -2.25244,4.584773 -0.5112,2.955342 -0.5112,6.917097 v 25.368012 q 0,4.824395 0.78276,7.635964 0.79874,2.811568 2.6039,3.993704 1.82113,1.182137 4.90427,1.182137 3.64226,0 5.22377,-1.613457 1.5815,-1.629431 1.9649,-4.472949 0.39937,-2.843518 0.39937,-6.645525 v -4.744521 h 8.46666 v 4.744521 q 0,5.862759 -1.42177,10.335708 -1.42175,4.456975 -4.90426,6.949046 -3.48251,2.492072 -9.80854,2.492072 z m 25.14018,-0.718867 V 33.553909 h 8.78615 v 64.043049 z m 15.66097,0 13.59457,-64.043049 h 8.62641 l 13.67444,64.043049 h -8.46665 l -2.9234,-16.134567 h -13.03545 l -3.08314,16.134567 z m 12.65206,-22.524494 h 10.67117 l -5.3835,-28.866498 z m 29.7277,22.524494 V 33.553909 h 8.92993 v 57.637147 h 16.35821 v 6.405902 z"
       fill-rule="nonzero"
       id="path71"
       style="stroke-width:1.02239" />
    <path
       fill="#ffffff"
       d="m 22.213626,192.80075 17.258116,-81.26889 h 10.933317 l 17.369352,81.26889 H 57.03179 l -3.718596,-20.4682 H 36.754303 l -3.909296,20.4682 z m 16.050365,-28.58872 h 13.555407 l -6.833323,-36.62979 z m 37.734012,28.58872 v -81.26889 h 16.352306 q 8.120521,0 13.444161,2.16124 5.32363,2.14536 7.88217,6.91279 2.55851,4.76744 2.55851,12.49068 0,4.71977 -1.01705,8.58137 -1.00116,3.86163 -3.21008,6.5314 -2.19301,2.65385 -5.81625,3.86161 l 11.53717,40.7298 h -10.9333 L 96.16426,154.67716 h -8.835651 v 38.12359 z m 11.330606,-46.26002 h 4.322469 q 4.815112,0 7.818592,-1.19186 3.01939,-1.20775 4.41784,-4.11589 1.39843,-2.90813 1.39843,-8.13641 0,-7.11937 -2.60618,-10.28178 -2.60622,-3.1624 -10.329451,-3.1624 h -5.0217 z m 49.676111,46.26002 v -72.84641 h -13.74611 v -8.42248 h 38.42553 v 8.42248 h -13.34883 v 72.84641 z m 33.11269,0 v -81.26889 h 11.13991 v 81.26889 z m 43.44518,0.90581 q -7.02401,0 -11.69611,-3.00349 -4.65619,-3.01938 -7.07169,-8.32712 -2.39962,-5.32363 -2.81279,-12.34766 l 10.0434,-2.71742 q 0.30193,4.32246 1.35076,8.34301 1.04884,4.00464 3.44844,6.56317 2.41551,2.5585 6.73799,2.5585 4.41781,0 6.67441,-2.46316 2.25657,-2.46318 2.25657,-7.0717 0,-5.51432 -2.51085,-8.86744 -2.51083,-3.36897 -6.32478,-6.78564 L 200.00718,147.5419 q -4.00465,-3.51202 -5.91162,-7.67557 -1.90697,-4.16357 -1.90697,-10.28178 0,-8.93099 5.11704,-13.84144 5.11705,-4.92635 13.9527,-4.92635 4.81511,0 8.47015,1.25542 3.67092,1.25543 6.1182,3.87751 2.46316,2.60619 3.90929,6.56318 1.46202,3.95696 1.97055,9.28059 l -9.64612,2.6062 q -0.28603,-4.00464 -1.19185,-7.35773 -0.90583,-3.36898 -3.16241,-5.41898 -2.25657,-2.06591 -6.46781,-2.06591 -4.22713,0 -6.57906,2.2566 -2.35194,2.25659 -2.35194,6.6744 0,3.70271 1.23953,6.11821 1.25543,2.39959 4.06821,4.91046 l 13.7461,12.04571 q 4.62442,4.02056 8.13644,9.58256 3.51201,5.56199 3.51201,13.1899 0,6.02286 -2.51085,10.39302 -2.51085,4.35423 -6.881,6.67439 -4.35427,2.30427 -10.07518,2.30427 z m 23.87721,-0.90581 17.25812,-81.26889 h 10.9333 l 17.36935,81.26889 h -10.74261 l -3.71859,-20.4682 h -16.5589 l -3.90928,20.4682 z m 16.05037,-28.58872 h 13.5554 l -6.83333,-36.62979 z m 37.734,28.58872 v -81.26889 h 7.72324 l 23.07438,53.98326 v -53.98326 h 9.43952 v 81.26889 h -7.23062 L 300.85438,137.3078 v 55.49295 z"
       fill-rule="nonzero"
       id="path75"
       style="stroke-width:1.01706" />
  </g>
</svg>
